<svg id="Layer_1" data-name="Layer 1" xmlns="http://www.w3.org/2000/svg" viewBox="0 0 800 800"><defs><style>.cls-1{fill:#fff;}</style></defs><path class="cls-1" d="M340.84,299.72C366,239.68,289.17,269,298,247.94c2.51-6,7.08-9.76,19.09-9.76,38.27,0,73.67,1.5,103.68,1.5s66.68-1.5,104.95-1.5c12,0,13.44,3.76,10.93,9.76-8.8,21-61.09-8.26-86.2,51.78L291.58,679.46C270.26,730.59,264.72,732,331.14,732c88.56,0,172.57-45.43,236.76-132.49,10.46-14.26,14-21,20.79-21,5.26,0,5.94,3.75,4,8.25s-7.15,13.51-12.1,21.77L490.21,750c-78.48-.75-178-1.5-282.3-1.5-30,0-66.66,1.5-104.94,1.5-12,0-13.44-3.75-10.93-9.76,8.79-21,61.09,8.26,86.2-51.78Z"/><path class="cls-1" d="M599.43,527.3c-36,22.51-90.06,55.53-175.61,55.53-159.1,0-280.67-120.07-280.67-266.41S264.72,50,421.57,50c80.3,0,136.59,39,159.1,39,31.52,0,17.26-34.52,30.77-34.52,6,0,9,3,9,8.25V261.64c0,6-3.75,9-6.75,9-12,0-3-14.26-21-63C561.16,119.05,504.87,68,423.82,68c-75.05,0-157.6,61.53-157.6,248.4s82.55,248.4,157.6,248.4c64.54,0,117.07-37.52,117.07-108.06v-42c0-70.54-64.54-41.28-64.54-62.29,0-6,3-9.75,15-9.75,38.28,0,74.3,1.5,101.32,1.5s63-1.5,101.31-1.5c12,0,15,3.74,15,9.75,0,21-64.54-8.25-64.54,51.79v166.6H621.94Z"/></svg>